{
	"asset":{
		"generator":"Khronos glTF Blender I/O v5.2.40",
		"version":"2.0"
	},
	"scene":0,
	"scenes":[
		{
			"name":"Scene",
			"nodes":[
				14
			]
		}
	],
	"nodes":[
		{
			"name":"head",
			"rotation":[
				5.955700410381799e-23,
				3.552713678800501e-15,
				2.470513183550859e-22,
				1
			],
			"translation":[
				2.411100219137447e-22,
				0.3750002384185791,
				-7.105427357601002e-15
			]
		},
		{
			"name":"left_wrist",
			"rotation":[
				-4.440892098500626e-15,
				3.552713678800501e-15,
				9.836627220272678e-23,
				1
			],
			"translation":[
				-2.9802322387695312e-08,
				-0.24999988079071045,
				-4.440892098500626e-16
			]
		},
		{
			"children":[
				1
			],
			"name":"left_lower_arm",
			"rotation":[
				3.552713678800501e-15,
				-3.552713678800501e-15,
				3.816713027334909e-22,
				1
			],
			"translation":[
				-2.9802322387695312e-08,
				-0.24999988079071045,
				-7.105427357601002e-15
			]
		},
		{
			"children":[
				2
			],
			"name":"left_upper_arm",
			"rotation":[
				-6.217248937900877e-15,
				7.105427357601002e-15,
				1.366299009907123e-22,
				1
			],
			"translation":[
				-0.3125,
				0.25000011920928955,
				-1.0696422414468998e-08
			]
		},
		{
			"name":"right_wrist",
			"rotation":[
				-4.440892098500626e-15,
				3.552713678800501e-15,
				9.836627220272678e-23,
				1
			],
			"translation":[
				2.9802322387695312e-08,
				-0.24999988079071045,
				-2.220446049250313e-15
			]
		},
		{
			"children":[
				4
			],
			"name":"right_lower_arm",
			"rotation":[
				3.552713678800501e-15,
				-3.552713678800501e-15,
				3.816713027334909e-22,
				1
			],
			"translation":[
				2.9802322387695312e-08,
				-0.24999988079071045,
				-8.881784197001252e-15
			]
		},
		{
			"children":[
				5
			],
			"name":"right_upper_arm",
			"rotation":[
				-6.217248937900877e-15,
				7.105427357601002e-15,
				1.366299009907123e-22,
				1
			],
			"translation":[
				0.3125,
				0.25000011920928955,
				1.0696418861755319e-08
			]
		},
		{
			"children":[
				0,
				3,
				6
			],
			"name":"chest",
			"rotation":[
				5.955700410381799e-23,
				-2.5376088785833417e-08,
				2.346464869313727e-22,
				1
			],
			"translation":[
				-7.568790452410609e-22,
				0.3750000596046448,
				3.552713678800501e-15
			]
		},
		{
			"name":"left_lower_leg",
			"rotation":[
				5.955700410381799e-23,
				5.329070518200751e-15,
				4.173141084023915e-22,
				1
			],
			"translation":[
				-8.881784197001252e-16,
				-0.37499991059303284,
				2.220446049250313e-15
			]
		},
		{
			"children":[
				8
			],
			"name":"left_upper_leg",
			"rotation":[
				5.955700410381799e-23,
				-2.5376088785833417e-08,
				1.1112084037560425e-22,
				1
			],
			"translation":[
				-0.11874999850988388,
				5.960464477539063e-08,
				-1.009146011199391e-08
			]
		},
		{
			"name":"right_lower_leg",
			"rotation":[
				-8.88178366760566e-16,
				5.329070518200751e-15,
				3.607929944715495e-22,
				1
			],
			"translation":[
				-8.881784197001252e-16,
				-0.37499991059303284,
				-4.440892098500626e-16
			]
		},
		{
			"children":[
				10
			],
			"name":"right_upper_leg",
			"rotation":[
				8.881785255792436e-16,
				-2.5376088785833417e-08,
				1.137417139817871e-22,
				1
			],
			"translation":[
				0.11874999850988388,
				5.960464477539063e-08,
				1.009146011199391e-08
			]
		},
		{
			"children":[
				7,
				9,
				11
			],
			"name":"hips",
			"rotation":[
				-3.8359463161441454e-08,
				4.249036322789834e-08,
				-7.271917083218873e-16,
				1
			],
			"scale":[
				1,
				0.9999999403953552,
				0.9999999403953552
			],
			"translation":[
				0,
				0.75,
				0
			]
		},
		{
			"mesh":0,
			"name":"puppet_mesh",
			"skin":0
		},
		{
			"children":[
				13,
				12
			],
			"name":"Armature"
		}
	],
	"animations":[
		{
			"channels":[
				{
					"sampler":0,
					"target":{
						"node":12,
						"path":"translation"
					}
				},
				{
					"sampler":1,
					"target":{
						"node":12,
						"path":"rotation"
					}
				},
				{
					"sampler":2,
					"target":{
						"node":12,
						"path":"scale"
					}
				},
				{
					"sampler":3,
					"target":{
						"node":7,
						"path":"translation"
					}
				},
				{
					"sampler":4,
					"target":{
						"node":7,
						"path":"rotation"
					}
				},
				{
					"sampler":5,
					"target":{
						"node":7,
						"path":"scale"
					}
				},
				{
					"sampler":6,
					"target":{
						"node":0,
						"path":"translation"
					}
				},
				{
					"sampler":7,
					"target":{
						"node":0,
						"path":"rotation"
					}
				},
				{
					"sampler":8,
					"target":{
						"node":0,
						"path":"scale"
					}
				},
				{
					"sampler":9,
					"target":{
						"node":3,
						"path":"translation"
					}
				},
				{
					"sampler":10,
					"target":{
						"node":3,
						"path":"rotation"
					}
				},
				{
					"sampler":11,
					"target":{
						"node":3,
						"path":"scale"
					}
				},
				{
					"sampler":12,
					"target":{
						"node":2,
						"path":"translation"
					}
				},
				{
					"sampler":13,
					"target":{
						"node":2,
						"path":"rotation"
					}
				},
				{
					"sampler":14,
					"target":{
						"node":2,
						"path":"scale"
					}
				},
				{
					"sampler":15,
					"target":{
						"node":1,
						"path":"translation"
					}
				},
				{
					"sampler":16,
					"target":{
						"node":1,
						"path":"rotation"
					}
				},
				{
					"sampler":17,
					"target":{
						"node":1,
						"path":"scale"
					}
				},
				{
					"sampler":18,
					"target":{
						"node":6,
						"path":"translation"
					}
				},
				{
					"sampler":19,
					"target":{
						"node":6,
						"path":"rotation"
					}
				},
				{
					"sampler":20,
					"target":{
						"node":6,
						"path":"scale"
					}
				},
				{
					"sampler":21,
					"target":{
						"node":5,
						"path":"translation"
					}
				},
				{
					"sampler":22,
					"target":{
						"node":5,
						"path":"rotation"
					}
				},
				{
					"sampler":23,
					"target":{
						"node":5,
						"path":"scale"
					}
				},
				{
					"sampler":24,
					"target":{
						"node":4,
						"path":"translation"
					}
				},
				{
					"sampler":25,
					"target":{
						"node":4,
						"path":"rotation"
					}
				},
				{
					"sampler":26,
					"target":{
						"node":4,
						"path":"scale"
					}
				},
				{
					"sampler":27,
					"target":{
						"node":9,
						"path":"translation"
					}
				},
				{
					"sampler":28,
					"target":{
						"node":9,
						"path":"rotation"
					}
				},
				{
					"sampler":29,
					"target":{
						"node":9,
						"path":"scale"
					}
				},
				{
					"sampler":30,
					"target":{
						"node":8,
						"path":"translation"
					}
				},
				{
					"sampler":31,
					"target":{
						"node":8,
						"path":"rotation"
					}
				},
				{
					"sampler":32,
					"target":{
						"node":8,
						"path":"scale"
					}
				},
				{
					"sampler":33,
					"target":{
						"node":11,
						"path":"translation"
					}
				},
				{
					"sampler":34,
					"target":{
						"node":11,
						"path":"rotation"
					}
				},
				{
					"sampler":35,
					"target":{
						"node":11,
						"path":"scale"
					}
				},
				{
					"sampler":36,
					"target":{
						"node":10,
						"path":"translation"
					}
				},
				{
					"sampler":37,
					"target":{
						"node":10,
						"path":"rotation"
					}
				},
				{
					"sampler":38,
					"target":{
						"node":10,
						"path":"scale"
					}
				}
			],
			"name":"defense_counters",
			"samplers":[
				{
					"input":7,
					"interpolation":"STEP",
					"output":8
				},
				{
					"input":9,
					"interpolation":"LINEAR",
					"output":10
				},
				{
					"input":7,
					"interpolation":"STEP",
					"output":11
				},
				{
					"input":7,
					"interpolation":"STEP",
					"output":12
				},
				{
					"input":9,
					"interpolation":"LINEAR",
					"output":13
				},
				{
					"input":7,
					"interpolation":"STEP",
					"output":14
				},
				{
					"input":7,
					"interpolation":"STEP",
					"output":15
				},
				{
					"input":9,
					"interpolation":"LINEAR",
					"output":16
				},
				{
					"input":7,
					"interpolation":"STEP",
					"output":17
				},
				{
					"input":7,
					"interpolation":"STEP",
					"output":18
				},
				{
					"input":9,
					"interpolation":"LINEAR",
					"output":19
				},
				{
					"input":7,
					"interpolation":"STEP",
					"output":20
				},
				{
					"input":7,
					"interpolation":"STEP",
					"output":21
				},
				{
					"input":9,
					"interpolation":"LINEAR",
					"output":22
				},
				{
					"input":7,
					"interpolation":"STEP",
					"output":14
				},
				{
					"input":7,
					"interpolation":"STEP",
					"output":23
				},
				{
					"input":7,
					"interpolation":"STEP",
					"output":24
				},
				{
					"input":7,
					"interpolation":"STEP",
					"output":25
				},
				{
					"input":7,
					"interpolation":"STEP",
					"output":26
				},
				{
					"input":9,
					"interpolation":"LINEAR",
					"output":27
				},
				{
					"input":7,
					"interpolation":"STEP",
					"output":14
				},
				{
					"input":7,
					"interpolation":"STEP",
					"output":28
				},
				{
					"input":9,
					"interpolation":"LINEAR",
					"output":29
				},
				{
					"input":7,
					"interpolation":"STEP",
					"output":20
				},
				{
					"input":7,
					"interpolation":"STEP",
					"output":30
				},
				{
					"input":7,
					"interpolation":"STEP",
					"output":31
				},
				{
					"input":7,
					"interpolation":"STEP",
					"output":14
				},
				{
					"input":7,
					"interpolation":"STEP",
					"output":32
				},
				{
					"input":7,
					"interpolation":"STEP",
					"output":33
				},
				{
					"input":7,
					"interpolation":"STEP",
					"output":14
				},
				{
					"input":7,
					"interpolation":"STEP",
					"output":34
				},
				{
					"input":7,
					"interpolation":"STEP",
					"output":35
				},
				{
					"input":7,
					"interpolation":"STEP",
					"output":36
				},
				{
					"input":7,
					"interpolation":"STEP",
					"output":37
				},
				{
					"input":9,
					"interpolation":"LINEAR",
					"output":38
				},
				{
					"input":7,
					"interpolation":"STEP",
					"output":14
				},
				{
					"input":7,
					"interpolation":"STEP",
					"output":39
				},
				{
					"input":9,
					"interpolation":"LINEAR",
					"output":40
				},
				{
					"input":7,
					"interpolation":"STEP",
					"output":17
				}
			]
		},
		{
			"channels":[
				{
					"sampler":0,
					"target":{
						"node":12,
						"path":"translation"
					}
				},
				{
					"sampler":1,
					"target":{
						"node":12,
						"path":"rotation"
					}
				},
				{
					"sampler":2,
					"target":{
						"node":12,
						"path":"scale"
					}
				},
				{
					"sampler":3,
					"target":{
						"node":7,
						"path":"translation"
					}
				},
				{
					"sampler":4,
					"target":{
						"node":7,
						"path":"rotation"
					}
				},
				{
					"sampler":5,
					"target":{
						"node":7,
						"path":"scale"
					}
				},
				{
					"sampler":6,
					"target":{
						"node":0,
						"path":"translation"
					}
				},
				{
					"sampler":7,
					"target":{
						"node":0,
						"path":"rotation"
					}
				},
				{
					"sampler":8,
					"target":{
						"node":0,
						"path":"scale"
					}
				},
				{
					"sampler":9,
					"target":{
						"node":3,
						"path":"translation"
					}
				},
				{
					"sampler":10,
					"target":{
						"node":3,
						"path":"rotation"
					}
				},
				{
					"sampler":11,
					"target":{
						"node":3,
						"path":"scale"
					}
				},
				{
					"sampler":12,
					"target":{
						"node":2,
						"path":"translation"
					}
				},
				{
					"sampler":13,
					"target":{
						"node":2,
						"path":"rotation"
					}
				},
				{
					"sampler":14,
					"target":{
						"node":2,
						"path":"scale"
					}
				},
				{
					"sampler":15,
					"target":{
						"node":1,
						"path":"translation"
					}
				},
				{
					"sampler":16,
					"target":{
						"node":1,
						"path":"rotation"
					}
				},
				{
					"sampler":17,
					"target":{
						"node":1,
						"path":"scale"
					}
				},
				{
					"sampler":18,
					"target":{
						"node":6,
						"path":"translation"
					}
				},
				{
					"sampler":19,
					"target":{
						"node":6,
						"path":"rotation"
					}
				},
				{
					"sampler":20,
					"target":{
						"node":6,
						"path":"scale"
					}
				},
				{
					"sampler":21,
					"target":{
						"node":5,
						"path":"translation"
					}
				},
				{
					"sampler":22,
					"target":{
						"node":5,
						"path":"rotation"
					}
				},
				{
					"sampler":23,
					"target":{
						"node":5,
						"path":"scale"
					}
				},
				{
					"sampler":24,
					"target":{
						"node":4,
						"path":"translation"
					}
				},
				{
					"sampler":25,
					"target":{
						"node":4,
						"path":"rotation"
					}
				},
				{
					"sampler":26,
					"target":{
						"node":4,
						"path":"scale"
					}
				},
				{
					"sampler":27,
					"target":{
						"node":9,
						"path":"translation"
					}
				},
				{
					"sampler":28,
					"target":{
						"node":9,
						"path":"rotation"
					}
				},
				{
					"sampler":29,
					"target":{
						"node":9,
						"path":"scale"
					}
				},
				{
					"sampler":30,
					"target":{
						"node":8,
						"path":"translation"
					}
				},
				{
					"sampler":31,
					"target":{
						"node":8,
						"path":"rotation"
					}
				},
				{
					"sampler":32,
					"target":{
						"node":8,
						"path":"scale"
					}
				},
				{
					"sampler":33,
					"target":{
						"node":11,
						"path":"translation"
					}
				},
				{
					"sampler":34,
					"target":{
						"node":11,
						"path":"rotation"
					}
				},
				{
					"sampler":35,
					"target":{
						"node":11,
						"path":"scale"
					}
				},
				{
					"sampler":36,
					"target":{
						"node":10,
						"path":"translation"
					}
				},
				{
					"sampler":37,
					"target":{
						"node":10,
						"path":"rotation"
					}
				},
				{
					"sampler":38,
					"target":{
						"node":10,
						"path":"scale"
					}
				}
			],
			"name":"guard_wrists",
			"samplers":[
				{
					"input":41,
					"interpolation":"STEP",
					"output":8
				},
				{
					"input":41,
					"interpolation":"STEP",
					"output":42
				},
				{
					"input":41,
					"interpolation":"STEP",
					"output":11
				},
				{
					"input":41,
					"interpolation":"STEP",
					"output":12
				},
				{
					"input":41,
					"interpolation":"STEP",
					"output":43
				},
				{
					"input":41,
					"interpolation":"STEP",
					"output":14
				},
				{
					"input":41,
					"interpolation":"STEP",
					"output":15
				},
				{
					"input":41,
					"interpolation":"STEP",
					"output":44
				},
				{
					"input":41,
					"interpolation":"STEP",
					"output":14
				},
				{
					"input":41,
					"interpolation":"STEP",
					"output":18
				},
				{
					"input":41,
					"interpolation":"STEP",
					"output":45
				},
				{
					"input":41,
					"interpolation":"STEP",
					"output":14
				},
				{
					"input":41,
					"interpolation":"STEP",
					"output":46
				},
				{
					"input":41,
					"interpolation":"STEP",
					"output":47
				},
				{
					"input":41,
					"interpolation":"STEP",
					"output":14
				},
				{
					"input":41,
					"interpolation":"STEP",
					"output":48
				},
				{
					"input":49,
					"interpolation":"LINEAR",
					"output":50
				},
				{
					"input":41,
					"interpolation":"STEP",
					"output":14
				},
				{
					"input":41,
					"interpolation":"STEP",
					"output":26
				},
				{
					"input":41,
					"interpolation":"STEP",
					"output":45
				},
				{
					"input":41,
					"interpolation":"STEP",
					"output":14
				},
				{
					"input":41,
					"interpolation":"STEP",
					"output":51
				},
				{
					"input":41,
					"interpolation":"STEP",
					"output":47
				},
				{
					"input":41,
					"interpolation":"STEP",
					"output":14
				},
				{
					"input":41,
					"interpolation":"STEP",
					"output":52
				},
				{
					"input":49,
					"interpolation":"LINEAR",
					"output":53
				},
				{
					"input":41,
					"interpolation":"STEP",
					"output":14
				},
				{
					"input":41,
					"interpolation":"STEP",
					"output":32
				},
				{
					"input":41,
					"interpolation":"STEP",
					"output":54
				},
				{
					"input":41,
					"interpolation":"STEP",
					"output":14
				},
				{
					"input":41,
					"interpolation":"STEP",
					"output":55
				},
				{
					"input":41,
					"interpolation":"STEP",
					"output":56
				},
				{
					"input":41,
					"interpolation":"STEP",
					"output":14
				},
				{
					"input":41,
					"interpolation":"STEP",
					"output":37
				},
				{
					"input":41,
					"interpolation":"STEP",
					"output":57
				},
				{
					"input":41,
					"interpolation":"STEP",
					"output":14
				},
				{
					"input":41,
					"interpolation":"STEP",
					"output":58
				},
				{
					"input":41,
					"interpolation":"STEP",
					"output":59
				},
				{
					"input":41,
					"interpolation":"STEP",
					"output":14
				}
			]
		}
	],
	"meshes":[
		{
			"name":"Mesh_0",
			"primitives":[
				{
					"attributes":{
						"POSITION":0,
						"NORMAL":1,
						"TEXCOORD_0":2,
						"JOINTS_0":3,
						"WEIGHTS_0":4
					},
					"indices":5
				}
			]
		}
	],
	"skins":[
		{
			"inverseBindMatrices":6,
			"joints":[
				12,
				7,
				0,
				3,
				2,
				1,
				6,
				5,
				4,
				9,
				8,
				11,
				10
			],
			"name":"Armature"
		}
	],
	"accessors":[
		{
			"bufferView":0,
			"componentType":5126,
			"count":1136,
			"max":[
				0.4375,
				2,
				0.25
			],
			"min":[
				-0.4375,
				0,
				-0.25
			],
			"type":"VEC3"
		},
		{
			"bufferView":1,
			"componentType":5126,
			"count":1136,
			"type":"VEC3"
		},
		{
			"bufferView":2,
			"componentType":5126,
			"count":1136,
			"type":"VEC2"
		},
		{
			"bufferView":3,
			"componentType":5121,
			"count":1136,
			"type":"VEC4"
		},
		{
			"bufferView":4,
			"componentType":5126,
			"count":1136,
			"type":"VEC4"
		},
		{
			"bufferView":5,
			"componentType":5123,
			"count":1704,
			"type":"SCALAR"
		},
		{
			"bufferView":6,
			"componentType":5126,
			"count":13,
			"type":"MAT4"
		},
		{
			"bufferView":7,
			"componentType":5126,
			"count":2,
			"max":[
				3.716666666666667
			],
			"min":[
				0.016666666666666666
			],
			"type":"SCALAR"
		},
		{
			"bufferView":8,
			"componentType":5126,
			"count":2,
			"type":"VEC3"
		},
		{
			"bufferView":9,
			"componentType":5126,
			"count":223,
			"max":[
				3.716666666666667
			],
			"min":[
				0.016666666666666666
			],
			"type":"SCALAR"
		},
		{
			"bufferView":10,
			"componentType":5126,
			"count":223,
			"type":"VEC4"
		},
		{
			"bufferView":11,
			"componentType":5126,
			"count":2,
			"type":"VEC3"
		},
		{
			"bufferView":12,
			"componentType":5126,
			"count":2,
			"type":"VEC3"
		},
		{
			"bufferView":13,
			"componentType":5126,
			"count":223,
			"type":"VEC4"
		},
		{
			"bufferView":14,
			"componentType":5126,
			"count":2,
			"type":"VEC3"
		},
		{
			"bufferView":15,
			"componentType":5126,
			"count":2,
			"type":"VEC3"
		},
		{
			"bufferView":16,
			"componentType":5126,
			"count":223,
			"type":"VEC4"
		},
		{
			"bufferView":17,
			"componentType":5126,
			"count":2,
			"type":"VEC3"
		},
		{
			"bufferView":18,
			"componentType":5126,
			"count":2,
			"type":"VEC3"
		},
		{
			"bufferView":19,
			"componentType":5126,
			"count":223,
			"type":"VEC4"
		},
		{
			"bufferView":20,
			"componentType":5126,
			"count":2,
			"type":"VEC3"
		},
		{
			"bufferView":21,
			"componentType":5126,
			"count":2,
			"type":"VEC3"
		},
		{
			"bufferView":22,
			"componentType":5126,
			"count":223,
			"type":"VEC4"
		},
		{
			"bufferView":23,
			"componentType":5126,
			"count":2,
			"type":"VEC3"
		},
		{
			"bufferView":24,
			"componentType":5126,
			"count":2,
			"type":"VEC4"
		},
		{
			"bufferView":25,
			"componentType":5126,
			"count":2,
			"type":"VEC3"
		},
		{
			"bufferView":26,
			"componentType":5126,
			"count":2,
			"type":"VEC3"
		},
		{
			"bufferView":27,
			"componentType":5126,
			"count":223,
			"type":"VEC4"
		},
		{
			"bufferView":28,
			"componentType":5126,
			"count":2,
			"type":"VEC3"
		},
		{
			"bufferView":29,
			"componentType":5126,
			"count":223,
			"type":"VEC4"
		},
		{
			"bufferView":30,
			"componentType":5126,
			"count":2,
			"type":"VEC3"
		},
		{
			"bufferView":31,
			"componentType":5126,
			"count":2,
			"type":"VEC4"
		},
		{
			"bufferView":32,
			"componentType":5126,
			"count":2,
			"type":"VEC3"
		},
		{
			"bufferView":33,
			"componentType":5126,
			"count":2,
			"type":"VEC4"
		},
		{
			"bufferView":34,
			"componentType":5126,
			"count":2,
			"type":"VEC3"
		},
		{
			"bufferView":35,
			"componentType":5126,
			"count":2,
			"type":"VEC4"
		},
		{
			"bufferView":36,
			"componentType":5126,
			"count":2,
			"type":"VEC3"
		},
		{
			"bufferView":37,
			"componentType":5126,
			"count":2,
			"type":"VEC3"
		},
		{
			"bufferView":38,
			"componentType":5126,
			"count":223,
			"type":"VEC4"
		},
		{
			"bufferView":39,
			"componentType":5126,
			"count":2,
			"type":"VEC3"
		},
		{
			"bufferView":40,
			"componentType":5126,
			"count":223,
			"type":"VEC4"
		},
		{
			"bufferView":41,
			"componentType":5126,
			"count":2,
			"max":[
				0.4
			],
			"min":[
				0
			],
			"type":"SCALAR"
		},
		{
			"bufferView":42,
			"componentType":5126,
			"count":2,
			"type":"VEC4"
		},
		{
			"bufferView":43,
			"componentType":5126,
			"count":2,
			"type":"VEC4"
		},
		{
			"bufferView":44,
			"componentType":5126,
			"count":2,
			"type":"VEC4"
		},
		{
			"bufferView":45,
			"componentType":5126,
			"count":2,
			"type":"VEC4"
		},
		{
			"bufferView":46,
			"componentType":5126,
			"count":2,
			"type":"VEC3"
		},
		{
			"bufferView":47,
			"componentType":5126,
			"count":2,
			"type":"VEC4"
		},
		{
			"bufferView":48,
			"componentType":5126,
			"count":2,
			"type":"VEC3"
		},
		{
			"bufferView":49,
			"componentType":5126,
			"count":25,
			"max":[
				0.4
			],
			"min":[
				0
			],
			"type":"SCALAR"
		},
		{
			"bufferView":50,
			"componentType":5126,
			"count":25,
			"type":"VEC4"
		},
		{
			"bufferView":51,
			"componentType":5126,
			"count":2,
			"type":"VEC3"
		},
		{
			"bufferView":52,
			"componentType":5126,
			"count":2,
			"type":"VEC3"
		},
		{
			"bufferView":53,
			"componentType":5126,
			"count":25,
			"type":"VEC4"
		},
		{
			"bufferView":54,
			"componentType":5126,
			"count":2,
			"type":"VEC4"
		},
		{
			"bufferView":55,
			"componentType":5126,
			"count":2,
			"type":"VEC3"
		},
		{
			"bufferView":56,
			"componentType":5126,
			"count":2,
			"type":"VEC4"
		},
		{
			"bufferView":57,
			"componentType":5126,
			"count":2,
			"type":"VEC4"
		},
		{
			"bufferView":58,
			"componentType":5126,
			"count":2,
			"type":"VEC3"
		},
		{
			"bufferView":59,
			"componentType":5126,
			"count":2,
			"type":"VEC4"
		}
	],
	"bufferViews":[
		{
			"buffer":0,
			"byteLength":13632,
			"byteOffset":0,
			"target":34962
		},
		{
			"buffer":0,
			"byteLength":13632,
			"byteOffset":13632,
			"target":34962
		},
		{
			"buffer":0,
			"byteLength":9088,
			"byteOffset":27264,
			"target":34962
		},
		{
			"buffer":0,
			"byteLength":4544,
			"byteOffset":36352,
			"target":34962
		},
		{
			"buffer":0,
			"byteLength":18176,
			"byteOffset":40896,
			"target":34962
		},
		{
			"buffer":0,
			"byteLength":3408,
			"byteOffset":59072,
			"target":34963
		},
		{
			"buffer":0,
			"byteLength":832,
			"byteOffset":62480
		},
		{
			"buffer":0,
			"byteLength":8,
			"byteOffset":63312
		},
		{
			"buffer":0,
			"byteLength":24,
			"byteOffset":63320
		},
		{
			"buffer":0,
			"byteLength":892,
			"byteOffset":63344
		},
		{
			"buffer":0,
			"byteLength":3568,
			"byteOffset":64236
		},
		{
			"buffer":0,
			"byteLength":24,
			"byteOffset":67804
		},
		{
			"buffer":0,
			"byteLength":24,
			"byteOffset":67828
		},
		{
			"buffer":0,
			"byteLength":3568,
			"byteOffset":67852
		},
		{
			"buffer":0,
			"byteLength":24,
			"byteOffset":71420
		},
		{
			"buffer":0,
			"byteLength":24,
			"byteOffset":71444
		},
		{
			"buffer":0,
			"byteLength":3568,
			"byteOffset":71468
		},
		{
			"buffer":0,
			"byteLength":24,
			"byteOffset":75036
		},
		{
			"buffer":0,
			"byteLength":24,
			"byteOffset":75060
		},
		{
			"buffer":0,
			"byteLength":3568,
			"byteOffset":75084
		},
		{
			"buffer":0,
			"byteLength":24,
			"byteOffset":78652
		},
		{
			"buffer":0,
			"byteLength":24,
			"byteOffset":78676
		},
		{
			"buffer":0,
			"byteLength":3568,
			"byteOffset":78700
		},
		{
			"buffer":0,
			"byteLength":24,
			"byteOffset":82268
		},
		{
			"buffer":0,
			"byteLength":32,
			"byteOffset":82292
		},
		{
			"buffer":0,
			"byteLength":24,
			"byteOffset":82324
		},
		{
			"buffer":0,
			"byteLength":24,
			"byteOffset":82348
		},
		{
			"buffer":0,
			"byteLength":3568,
			"byteOffset":82372
		},
		{
			"buffer":0,
			"byteLength":24,
			"byteOffset":85940
		},
		{
			"buffer":0,
			"byteLength":3568,
			"byteOffset":85964
		},
		{
			"buffer":0,
			"byteLength":24,
			"byteOffset":89532
		},
		{
			"buffer":0,
			"byteLength":32,
			"byteOffset":89556
		},
		{
			"buffer":0,
			"byteLength":24,
			"byteOffset":89588
		},
		{
			"buffer":0,
			"byteLength":32,
			"byteOffset":89612
		},
		{
			"buffer":0,
			"byteLength":24,
			"byteOffset":89644
		},
		{
			"buffer":0,
			"byteLength":32,
			"byteOffset":89668
		},
		{
			"buffer":0,
			"byteLength":24,
			"byteOffset":89700
		},
		{
			"buffer":0,
			"byteLength":24,
			"byteOffset":89724
		},
		{
			"buffer":0,
			"byteLength":3568,
			"byteOffset":89748
		},
		{
			"buffer":0,
			"byteLength":24,
			"byteOffset":93316
		},
		{
			"buffer":0,
			"byteLength":3568,
			"byteOffset":93340
		},
		{
			"buffer":0,
			"byteLength":8,
			"byteOffset":96908
		},
		{
			"buffer":0,
			"byteLength":32,
			"byteOffset":96916
		},
		{
			"buffer":0,
			"byteLength":32,
			"byteOffset":96948
		},
		{
			"buffer":0,
			"byteLength":32,
			"byteOffset":96980
		},
		{
			"buffer":0,
			"byteLength":32,
			"byteOffset":97012
		},
		{
			"buffer":0,
			"byteLength":24,
			"byteOffset":97044
		},
		{
			"buffer":0,
			"byteLength":32,
			"byteOffset":97068
		},
		{
			"buffer":0,
			"byteLength":24,
			"byteOffset":97100
		},
		{
			"buffer":0,
			"byteLength":100,
			"byteOffset":97124
		},
		{
			"buffer":0,
			"byteLength":400,
			"byteOffset":97224
		},
		{
			"buffer":0,
			"byteLength":24,
			"byteOffset":97624
		},
		{
			"buffer":0,
			"byteLength":24,
			"byteOffset":97648
		},
		{
			"buffer":0,
			"byteLength":400,
			"byteOffset":97672
		},
		{
			"buffer":0,
			"byteLength":32,
			"byteOffset":98072
		},
		{
			"buffer":0,
			"byteLength":24,
			"byteOffset":98104
		},
		{
			"buffer":0,
			"byteLength":32,
			"byteOffset":98128
		},
		{
			"buffer":0,
			"byteLength":32,
			"byteOffset":98160
		},
		{
			"buffer":0,
			"byteLength":24,
			"byteOffset":98192
		},
		{
			"buffer":0,
			"byteLength":32,
			"byteOffset":98216
		}
	],
	"buffers":[
		{
			"byteLength":98248,
			"uri":"defense-slim.bin"
		}
	]
}
