{
  "asset": {
    "generator": "Khronos glTF Blender I/O v5.2.40",
    "version": "2.0"
  },
  "scene": 0,
  "scenes": [
    {
      "name": "Scene",
      "nodes": [
        14,
        13
      ]
    }
  ],
  "nodes": [
    {
      "name": "head",
      "rotation": [
        -5.955700410381799e-23,
        -3.552713678800501e-15,
        2.470513183550859e-22,
        1
      ],
      "translation": [
        -2.411100219137447e-22,
        -0.3750002384185791,
        -7.105427357601002e-15
      ]
    },
    {
      "name": "left_wrist",
      "rotation": [
        4.440892098500626e-15,
        -3.552713678800501e-15,
        9.836627220272678e-23,
        1
      ],
      "translation": [
        2.9802322387695312e-8,
        0.24999988079071045,
        -4.440892098500626e-16
      ]
    },
    {
      "children": [
        1
      ],
      "name": "left_lower_arm",
      "rotation": [
        -3.552713678800501e-15,
        3.552713678800501e-15,
        3.816713027334909e-22,
        1
      ],
      "translation": [
        2.9802322387695312e-8,
        0.24999988079071045,
        -7.105427357601002e-15
      ]
    },
    {
      "children": [
        2
      ],
      "name": "left_upper_arm",
      "rotation": [
        6.217248937900877e-15,
        -7.105427357601002e-15,
        1.366299009907123e-22,
        1
      ],
      "translation": [
        0.3125,
        -0.25000011920928955,
        -1.0696422414468998e-8
      ]
    },
    {
      "name": "right_wrist",
      "rotation": [
        4.440892098500626e-15,
        -3.552713678800501e-15,
        9.836627220272678e-23,
        1
      ],
      "translation": [
        -2.9802322387695312e-8,
        0.24999988079071045,
        -2.220446049250313e-15
      ]
    },
    {
      "children": [
        4
      ],
      "name": "right_lower_arm",
      "rotation": [
        -3.552713678800501e-15,
        3.552713678800501e-15,
        3.816713027334909e-22,
        1
      ],
      "translation": [
        -2.9802322387695312e-8,
        0.24999988079071045,
        -8.881784197001252e-15
      ]
    },
    {
      "children": [
        5
      ],
      "name": "right_upper_arm",
      "rotation": [
        6.217248937900877e-15,
        -7.105427357601002e-15,
        1.366299009907123e-22,
        1
      ],
      "translation": [
        -0.3125,
        -0.25000011920928955,
        1.0696418861755319e-8
      ]
    },
    {
      "children": [
        0,
        3,
        6
      ],
      "name": "chest",
      "rotation": [
        -5.955700410381799e-23,
        2.5376088785833417e-8,
        2.346464869313727e-22,
        1
      ],
      "translation": [
        7.568790452410609e-22,
        -0.3750000596046448,
        3.552713678800501e-15
      ]
    },
    {
      "name": "left_lower_leg",
      "rotation": [
        -5.955700410381799e-23,
        -5.329070518200751e-15,
        4.173141084023915e-22,
        1
      ],
      "translation": [
        8.881784197001252e-16,
        0.37499991059303284,
        2.220446049250313e-15
      ]
    },
    {
      "children": [
        8
      ],
      "name": "left_upper_leg",
      "rotation": [
        -5.955700410381799e-23,
        2.5376088785833417e-8,
        1.1112084037560425e-22,
        1
      ],
      "translation": [
        0.11874999850988388,
        -5.960464477539063e-8,
        -1.009146011199391e-8
      ]
    },
    {
      "name": "right_lower_leg",
      "rotation": [
        8.88178366760566e-16,
        -5.329070518200751e-15,
        3.607929944715495e-22,
        1
      ],
      "translation": [
        8.881784197001252e-16,
        0.37499991059303284,
        -4.440892098500626e-16
      ]
    },
    {
      "children": [
        10
      ],
      "name": "right_upper_leg",
      "rotation": [
        -8.881785255792436e-16,
        2.5376088785833417e-8,
        1.137417139817871e-22,
        1
      ],
      "translation": [
        -0.11874999850988388,
        -5.960464477539063e-8,
        1.009146011199391e-8
      ]
    },
    {
      "children": [
        7,
        9,
        11
      ],
      "name": "hips",
      "rotation": [
        3.8359463161441454e-8,
        -4.249036322789834e-8,
        -7.271917083218873e-16,
        1
      ],
      "scale": [
        1,
        0.9999999403953552,
        0.9999999403953552
      ],
      "translation": [
        0,
        -0.75,
        0
      ]
    },
    {
      "mesh": 0,
      "name": "puppet_mesh",
      "skin": 0
    },
    {
      "children": [
        12
      ],
      "name": "Armature",
      "translation": [
        0,
        1.5,
        0
      ],
      "rotation": [
        0,
        0,
        0,
        1
      ]
    }
  ],
  "animations": [
    {
      "channels": [
        {
          "sampler": 0,
          "target": {
            "node": 12,
            "path": "translation"
          }
        },
        {
          "sampler": 1,
          "target": {
            "node": 12,
            "path": "rotation"
          }
        },
        {
          "sampler": 2,
          "target": {
            "node": 12,
            "path": "scale"
          }
        },
        {
          "sampler": 3,
          "target": {
            "node": 7,
            "path": "translation"
          }
        },
        {
          "sampler": 4,
          "target": {
            "node": 7,
            "path": "rotation"
          }
        },
        {
          "sampler": 5,
          "target": {
            "node": 7,
            "path": "scale"
          }
        },
        {
          "sampler": 6,
          "target": {
            "node": 0,
            "path": "translation"
          }
        },
        {
          "sampler": 7,
          "target": {
            "node": 0,
            "path": "rotation"
          }
        },
        {
          "sampler": 8,
          "target": {
            "node": 0,
            "path": "scale"
          }
        },
        {
          "sampler": 9,
          "target": {
            "node": 3,
            "path": "translation"
          }
        },
        {
          "sampler": 10,
          "target": {
            "node": 3,
            "path": "rotation"
          }
        },
        {
          "sampler": 11,
          "target": {
            "node": 3,
            "path": "scale"
          }
        },
        {
          "sampler": 12,
          "target": {
            "node": 2,
            "path": "translation"
          }
        },
        {
          "sampler": 13,
          "target": {
            "node": 2,
            "path": "rotation"
          }
        },
        {
          "sampler": 14,
          "target": {
            "node": 2,
            "path": "scale"
          }
        },
        {
          "sampler": 15,
          "target": {
            "node": 1,
            "path": "translation"
          }
        },
        {
          "sampler": 16,
          "target": {
            "node": 1,
            "path": "rotation"
          }
        },
        {
          "sampler": 17,
          "target": {
            "node": 1,
            "path": "scale"
          }
        },
        {
          "sampler": 18,
          "target": {
            "node": 6,
            "path": "translation"
          }
        },
        {
          "sampler": 19,
          "target": {
            "node": 6,
            "path": "rotation"
          }
        },
        {
          "sampler": 20,
          "target": {
            "node": 6,
            "path": "scale"
          }
        },
        {
          "sampler": 21,
          "target": {
            "node": 5,
            "path": "translation"
          }
        },
        {
          "sampler": 22,
          "target": {
            "node": 5,
            "path": "rotation"
          }
        },
        {
          "sampler": 23,
          "target": {
            "node": 5,
            "path": "scale"
          }
        },
        {
          "sampler": 24,
          "target": {
            "node": 4,
            "path": "translation"
          }
        },
        {
          "sampler": 25,
          "target": {
            "node": 4,
            "path": "rotation"
          }
        },
        {
          "sampler": 26,
          "target": {
            "node": 4,
            "path": "scale"
          }
        },
        {
          "sampler": 27,
          "target": {
            "node": 9,
            "path": "translation"
          }
        },
        {
          "sampler": 28,
          "target": {
            "node": 9,
            "path": "rotation"
          }
        },
        {
          "sampler": 29,
          "target": {
            "node": 9,
            "path": "scale"
          }
        },
        {
          "sampler": 30,
          "target": {
            "node": 8,
            "path": "translation"
          }
        },
        {
          "sampler": 31,
          "target": {
            "node": 8,
            "path": "rotation"
          }
        },
        {
          "sampler": 32,
          "target": {
            "node": 8,
            "path": "scale"
          }
        },
        {
          "sampler": 33,
          "target": {
            "node": 11,
            "path": "translation"
          }
        },
        {
          "sampler": 34,
          "target": {
            "node": 11,
            "path": "rotation"
          }
        },
        {
          "sampler": 35,
          "target": {
            "node": 11,
            "path": "scale"
          }
        },
        {
          "sampler": 36,
          "target": {
            "node": 10,
            "path": "translation"
          }
        },
        {
          "sampler": 37,
          "target": {
            "node": 10,
            "path": "rotation"
          }
        },
        {
          "sampler": 38,
          "target": {
            "node": 10,
            "path": "scale"
          }
        }
      ],
      "name": "contact_test",
      "samplers": [
        {
          "input": 7,
          "interpolation": "STEP",
          "output": 8
        },
        {
          "input": 7,
          "interpolation": "STEP",
          "output": 9
        },
        {
          "input": 7,
          "interpolation": "STEP",
          "output": 10
        },
        {
          "input": 7,
          "interpolation": "STEP",
          "output": 11
        },
        {
          "input": 7,
          "interpolation": "STEP",
          "output": 12
        },
        {
          "input": 7,
          "interpolation": "STEP",
          "output": 13
        },
        {
          "input": 7,
          "interpolation": "STEP",
          "output": 14
        },
        {
          "input": 7,
          "interpolation": "STEP",
          "output": 15
        },
        {
          "input": 7,
          "interpolation": "STEP",
          "output": 13
        },
        {
          "input": 7,
          "interpolation": "STEP",
          "output": 16
        },
        {
          "input": 17,
          "interpolation": "LINEAR",
          "output": 18
        },
        {
          "input": 7,
          "interpolation": "STEP",
          "output": 13
        },
        {
          "input": 7,
          "interpolation": "STEP",
          "output": 19
        },
        {
          "input": 17,
          "interpolation": "LINEAR",
          "output": 20
        },
        {
          "input": 7,
          "interpolation": "STEP",
          "output": 13
        },
        {
          "input": 7,
          "interpolation": "STEP",
          "output": 21
        },
        {
          "input": 7,
          "interpolation": "STEP",
          "output": 22
        },
        {
          "input": 7,
          "interpolation": "STEP",
          "output": 13
        },
        {
          "input": 7,
          "interpolation": "STEP",
          "output": 23
        },
        {
          "input": 17,
          "interpolation": "LINEAR",
          "output": 24
        },
        {
          "input": 7,
          "interpolation": "STEP",
          "output": 13
        },
        {
          "input": 7,
          "interpolation": "STEP",
          "output": 25
        },
        {
          "input": 17,
          "interpolation": "LINEAR",
          "output": 26
        },
        {
          "input": 7,
          "interpolation": "STEP",
          "output": 13
        },
        {
          "input": 7,
          "interpolation": "STEP",
          "output": 27
        },
        {
          "input": 7,
          "interpolation": "STEP",
          "output": 28
        },
        {
          "input": 7,
          "interpolation": "STEP",
          "output": 13
        },
        {
          "input": 7,
          "interpolation": "STEP",
          "output": 29
        },
        {
          "input": 7,
          "interpolation": "STEP",
          "output": 30
        },
        {
          "input": 7,
          "interpolation": "STEP",
          "output": 13
        },
        {
          "input": 7,
          "interpolation": "STEP",
          "output": 31
        },
        {
          "input": 7,
          "interpolation": "STEP",
          "output": 32
        },
        {
          "input": 7,
          "interpolation": "STEP",
          "output": 13
        },
        {
          "input": 7,
          "interpolation": "STEP",
          "output": 33
        },
        {
          "input": 7,
          "interpolation": "STEP",
          "output": 34
        },
        {
          "input": 7,
          "interpolation": "STEP",
          "output": 13
        },
        {
          "input": 7,
          "interpolation": "STEP",
          "output": 35
        },
        {
          "input": 7,
          "interpolation": "STEP",
          "output": 36
        },
        {
          "input": 7,
          "interpolation": "STEP",
          "output": 13
        }
      ]
    },
    {
      "channels": [
        {
          "sampler": 0,
          "target": {
            "node": 12,
            "path": "translation"
          }
        },
        {
          "sampler": 1,
          "target": {
            "node": 12,
            "path": "rotation"
          }
        },
        {
          "sampler": 2,
          "target": {
            "node": 12,
            "path": "scale"
          }
        },
        {
          "sampler": 3,
          "target": {
            "node": 7,
            "path": "translation"
          }
        },
        {
          "sampler": 4,
          "target": {
            "node": 7,
            "path": "rotation"
          }
        },
        {
          "sampler": 5,
          "target": {
            "node": 7,
            "path": "scale"
          }
        },
        {
          "sampler": 6,
          "target": {
            "node": 0,
            "path": "translation"
          }
        },
        {
          "sampler": 7,
          "target": {
            "node": 0,
            "path": "rotation"
          }
        },
        {
          "sampler": 8,
          "target": {
            "node": 0,
            "path": "scale"
          }
        },
        {
          "sampler": 9,
          "target": {
            "node": 3,
            "path": "translation"
          }
        },
        {
          "sampler": 10,
          "target": {
            "node": 3,
            "path": "rotation"
          }
        },
        {
          "sampler": 11,
          "target": {
            "node": 3,
            "path": "scale"
          }
        },
        {
          "sampler": 12,
          "target": {
            "node": 2,
            "path": "translation"
          }
        },
        {
          "sampler": 13,
          "target": {
            "node": 2,
            "path": "rotation"
          }
        },
        {
          "sampler": 14,
          "target": {
            "node": 2,
            "path": "scale"
          }
        },
        {
          "sampler": 15,
          "target": {
            "node": 1,
            "path": "translation"
          }
        },
        {
          "sampler": 16,
          "target": {
            "node": 1,
            "path": "rotation"
          }
        },
        {
          "sampler": 17,
          "target": {
            "node": 1,
            "path": "scale"
          }
        },
        {
          "sampler": 18,
          "target": {
            "node": 6,
            "path": "translation"
          }
        },
        {
          "sampler": 19,
          "target": {
            "node": 6,
            "path": "rotation"
          }
        },
        {
          "sampler": 20,
          "target": {
            "node": 6,
            "path": "scale"
          }
        },
        {
          "sampler": 21,
          "target": {
            "node": 5,
            "path": "translation"
          }
        },
        {
          "sampler": 22,
          "target": {
            "node": 5,
            "path": "rotation"
          }
        },
        {
          "sampler": 23,
          "target": {
            "node": 5,
            "path": "scale"
          }
        },
        {
          "sampler": 24,
          "target": {
            "node": 4,
            "path": "translation"
          }
        },
        {
          "sampler": 25,
          "target": {
            "node": 4,
            "path": "rotation"
          }
        },
        {
          "sampler": 26,
          "target": {
            "node": 4,
            "path": "scale"
          }
        },
        {
          "sampler": 27,
          "target": {
            "node": 9,
            "path": "translation"
          }
        },
        {
          "sampler": 28,
          "target": {
            "node": 9,
            "path": "rotation"
          }
        },
        {
          "sampler": 29,
          "target": {
            "node": 9,
            "path": "scale"
          }
        },
        {
          "sampler": 30,
          "target": {
            "node": 8,
            "path": "translation"
          }
        },
        {
          "sampler": 31,
          "target": {
            "node": 8,
            "path": "rotation"
          }
        },
        {
          "sampler": 32,
          "target": {
            "node": 8,
            "path": "scale"
          }
        },
        {
          "sampler": 33,
          "target": {
            "node": 11,
            "path": "translation"
          }
        },
        {
          "sampler": 34,
          "target": {
            "node": 11,
            "path": "rotation"
          }
        },
        {
          "sampler": 35,
          "target": {
            "node": 11,
            "path": "scale"
          }
        },
        {
          "sampler": 36,
          "target": {
            "node": 10,
            "path": "translation"
          }
        },
        {
          "sampler": 37,
          "target": {
            "node": 10,
            "path": "rotation"
          }
        },
        {
          "sampler": 38,
          "target": {
            "node": 10,
            "path": "scale"
          }
        }
      ],
      "name": "guard_wrists",
      "samplers": [
        {
          "input": 37,
          "interpolation": "STEP",
          "output": 8
        },
        {
          "input": 37,
          "interpolation": "STEP",
          "output": 9
        },
        {
          "input": 37,
          "interpolation": "STEP",
          "output": 10
        },
        {
          "input": 37,
          "interpolation": "STEP",
          "output": 11
        },
        {
          "input": 37,
          "interpolation": "STEP",
          "output": 12
        },
        {
          "input": 37,
          "interpolation": "STEP",
          "output": 13
        },
        {
          "input": 37,
          "interpolation": "STEP",
          "output": 14
        },
        {
          "input": 37,
          "interpolation": "STEP",
          "output": 15
        },
        {
          "input": 37,
          "interpolation": "STEP",
          "output": 13
        },
        {
          "input": 37,
          "interpolation": "STEP",
          "output": 16
        },
        {
          "input": 37,
          "interpolation": "STEP",
          "output": 38
        },
        {
          "input": 37,
          "interpolation": "STEP",
          "output": 13
        },
        {
          "input": 37,
          "interpolation": "STEP",
          "output": 19
        },
        {
          "input": 37,
          "interpolation": "STEP",
          "output": 39
        },
        {
          "input": 37,
          "interpolation": "STEP",
          "output": 13
        },
        {
          "input": 37,
          "interpolation": "STEP",
          "output": 21
        },
        {
          "input": 40,
          "interpolation": "LINEAR",
          "output": 41
        },
        {
          "input": 37,
          "interpolation": "STEP",
          "output": 13
        },
        {
          "input": 37,
          "interpolation": "STEP",
          "output": 23
        },
        {
          "input": 37,
          "interpolation": "STEP",
          "output": 38
        },
        {
          "input": 37,
          "interpolation": "STEP",
          "output": 13
        },
        {
          "input": 37,
          "interpolation": "STEP",
          "output": 25
        },
        {
          "input": 37,
          "interpolation": "STEP",
          "output": 39
        },
        {
          "input": 37,
          "interpolation": "STEP",
          "output": 13
        },
        {
          "input": 37,
          "interpolation": "STEP",
          "output": 27
        },
        {
          "input": 40,
          "interpolation": "LINEAR",
          "output": 42
        },
        {
          "input": 37,
          "interpolation": "STEP",
          "output": 13
        },
        {
          "input": 37,
          "interpolation": "STEP",
          "output": 29
        },
        {
          "input": 37,
          "interpolation": "STEP",
          "output": 30
        },
        {
          "input": 37,
          "interpolation": "STEP",
          "output": 13
        },
        {
          "input": 37,
          "interpolation": "STEP",
          "output": 31
        },
        {
          "input": 37,
          "interpolation": "STEP",
          "output": 32
        },
        {
          "input": 37,
          "interpolation": "STEP",
          "output": 13
        },
        {
          "input": 37,
          "interpolation": "STEP",
          "output": 33
        },
        {
          "input": 37,
          "interpolation": "STEP",
          "output": 34
        },
        {
          "input": 37,
          "interpolation": "STEP",
          "output": 13
        },
        {
          "input": 37,
          "interpolation": "STEP",
          "output": 35
        },
        {
          "input": 37,
          "interpolation": "STEP",
          "output": 36
        },
        {
          "input": 37,
          "interpolation": "STEP",
          "output": 13
        }
      ]
    }
  ],
  "meshes": [
    {
      "name": "Mesh_0",
      "primitives": [
        {
          "attributes": {
            "POSITION": 0,
            "NORMAL": 1,
            "TEXCOORD_0": 2,
            "JOINTS_0": 3,
            "WEIGHTS_0": 4
          },
          "indices": 5
        }
      ]
    }
  ],
  "skins": [
    {
      "inverseBindMatrices": 6,
      "joints": [
        12,
        7,
        0,
        3,
        2,
        1,
        6,
        5,
        4,
        9,
        8,
        11,
        10
      ],
      "name": "Armature"
    }
  ],
  "accessors": [
    {
      "bufferView": 0,
      "componentType": 5126,
      "count": 1136,
      "max": [
        0.5,
        1.5,
        0.25
      ],
      "min": [
        -0.5,
        -0.5,
        -0.25
      ],
      "type": "VEC3"
    },
    {
      "bufferView": 1,
      "componentType": 5126,
      "count": 1136,
      "type": "VEC3"
    },
    {
      "bufferView": 2,
      "componentType": 5126,
      "count": 1136,
      "type": "VEC2"
    },
    {
      "bufferView": 3,
      "componentType": 5121,
      "count": 1136,
      "type": "VEC4"
    },
    {
      "bufferView": 4,
      "componentType": 5126,
      "count": 1136,
      "type": "VEC4"
    },
    {
      "bufferView": 5,
      "componentType": 5123,
      "count": 1704,
      "type": "SCALAR"
    },
    {
      "bufferView": 6,
      "componentType": 5126,
      "count": 13,
      "type": "MAT4"
    },
    {
      "bufferView": 7,
      "componentType": 5126,
      "count": 2,
      "max": [
        1.0416666666666667
      ],
      "min": [
        0.041666666666666664
      ],
      "type": "SCALAR"
    },
    {
      "bufferView": 8,
      "componentType": 5126,
      "count": 2,
      "type": "VEC3"
    },
    {
      "bufferView": 9,
      "componentType": 5126,
      "count": 2,
      "type": "VEC4"
    },
    {
      "bufferView": 10,
      "componentType": 5126,
      "count": 2,
      "type": "VEC3"
    },
    {
      "bufferView": 11,
      "componentType": 5126,
      "count": 2,
      "type": "VEC3"
    },
    {
      "bufferView": 12,
      "componentType": 5126,
      "count": 2,
      "type": "VEC4"
    },
    {
      "bufferView": 13,
      "componentType": 5126,
      "count": 2,
      "type": "VEC3"
    },
    {
      "bufferView": 14,
      "componentType": 5126,
      "count": 2,
      "type": "VEC3"
    },
    {
      "bufferView": 15,
      "componentType": 5126,
      "count": 2,
      "type": "VEC4"
    },
    {
      "bufferView": 16,
      "componentType": 5126,
      "count": 2,
      "type": "VEC3"
    },
    {
      "bufferView": 17,
      "componentType": 5126,
      "count": 25,
      "max": [
        1.0416666666666667
      ],
      "min": [
        0.041666666666666664
      ],
      "type": "SCALAR"
    },
    {
      "bufferView": 18,
      "componentType": 5126,
      "count": 25,
      "type": "VEC4"
    },
    {
      "bufferView": 19,
      "componentType": 5126,
      "count": 2,
      "type": "VEC3"
    },
    {
      "bufferView": 20,
      "componentType": 5126,
      "count": 25,
      "type": "VEC4"
    },
    {
      "bufferView": 21,
      "componentType": 5126,
      "count": 2,
      "type": "VEC3"
    },
    {
      "bufferView": 22,
      "componentType": 5126,
      "count": 2,
      "type": "VEC4"
    },
    {
      "bufferView": 23,
      "componentType": 5126,
      "count": 2,
      "type": "VEC3"
    },
    {
      "bufferView": 24,
      "componentType": 5126,
      "count": 25,
      "type": "VEC4"
    },
    {
      "bufferView": 25,
      "componentType": 5126,
      "count": 2,
      "type": "VEC3"
    },
    {
      "bufferView": 26,
      "componentType": 5126,
      "count": 25,
      "type": "VEC4"
    },
    {
      "bufferView": 27,
      "componentType": 5126,
      "count": 2,
      "type": "VEC3"
    },
    {
      "bufferView": 28,
      "componentType": 5126,
      "count": 2,
      "type": "VEC4"
    },
    {
      "bufferView": 29,
      "componentType": 5126,
      "count": 2,
      "type": "VEC3"
    },
    {
      "bufferView": 30,
      "componentType": 5126,
      "count": 2,
      "type": "VEC4"
    },
    {
      "bufferView": 31,
      "componentType": 5126,
      "count": 2,
      "type": "VEC3"
    },
    {
      "bufferView": 32,
      "componentType": 5126,
      "count": 2,
      "type": "VEC4"
    },
    {
      "bufferView": 33,
      "componentType": 5126,
      "count": 2,
      "type": "VEC3"
    },
    {
      "bufferView": 34,
      "componentType": 5126,
      "count": 2,
      "type": "VEC4"
    },
    {
      "bufferView": 35,
      "componentType": 5126,
      "count": 2,
      "type": "VEC3"
    },
    {
      "bufferView": 36,
      "componentType": 5126,
      "count": 2,
      "type": "VEC4"
    },
    {
      "bufferView": 37,
      "componentType": 5126,
      "count": 2,
      "max": [
        1
      ],
      "min": [
        0
      ],
      "type": "SCALAR"
    },
    {
      "bufferView": 38,
      "componentType": 5126,
      "count": 2,
      "type": "VEC4"
    },
    {
      "bufferView": 39,
      "componentType": 5126,
      "count": 2,
      "type": "VEC4"
    },
    {
      "bufferView": 40,
      "componentType": 5126,
      "count": 25,
      "max": [
        1
      ],
      "min": [
        0
      ],
      "type": "SCALAR"
    },
    {
      "bufferView": 41,
      "componentType": 5126,
      "count": 25,
      "type": "VEC4"
    },
    {
      "bufferView": 42,
      "componentType": 5126,
      "count": 25,
      "type": "VEC4"
    }
  ],
  "bufferViews": [
    {
      "buffer": 0,
      "byteLength": 13632,
      "byteOffset": 0,
      "target": 34962
    },
    {
      "buffer": 0,
      "byteLength": 13632,
      "byteOffset": 13632,
      "target": 34962
    },
    {
      "buffer": 0,
      "byteLength": 9088,
      "byteOffset": 27264,
      "target": 34962
    },
    {
      "buffer": 0,
      "byteLength": 4544,
      "byteOffset": 36352,
      "target": 34962
    },
    {
      "buffer": 0,
      "byteLength": 18176,
      "byteOffset": 40896,
      "target": 34962
    },
    {
      "buffer": 0,
      "byteLength": 3408,
      "byteOffset": 59072,
      "target": 34963
    },
    {
      "buffer": 0,
      "byteLength": 832,
      "byteOffset": 62480
    },
    {
      "buffer": 0,
      "byteLength": 8,
      "byteOffset": 63312
    },
    {
      "buffer": 0,
      "byteLength": 24,
      "byteOffset": 63320
    },
    {
      "buffer": 0,
      "byteLength": 32,
      "byteOffset": 63344
    },
    {
      "buffer": 0,
      "byteLength": 24,
      "byteOffset": 63376
    },
    {
      "buffer": 0,
      "byteLength": 24,
      "byteOffset": 63400
    },
    {
      "buffer": 0,
      "byteLength": 32,
      "byteOffset": 63424
    },
    {
      "buffer": 0,
      "byteLength": 24,
      "byteOffset": 63456
    },
    {
      "buffer": 0,
      "byteLength": 24,
      "byteOffset": 63480
    },
    {
      "buffer": 0,
      "byteLength": 32,
      "byteOffset": 63504
    },
    {
      "buffer": 0,
      "byteLength": 24,
      "byteOffset": 63536
    },
    {
      "buffer": 0,
      "byteLength": 100,
      "byteOffset": 63560
    },
    {
      "buffer": 0,
      "byteLength": 400,
      "byteOffset": 63660
    },
    {
      "buffer": 0,
      "byteLength": 24,
      "byteOffset": 64060
    },
    {
      "buffer": 0,
      "byteLength": 400,
      "byteOffset": 64084
    },
    {
      "buffer": 0,
      "byteLength": 24,
      "byteOffset": 64484
    },
    {
      "buffer": 0,
      "byteLength": 32,
      "byteOffset": 64508
    },
    {
      "buffer": 0,
      "byteLength": 24,
      "byteOffset": 64540
    },
    {
      "buffer": 0,
      "byteLength": 400,
      "byteOffset": 64564
    },
    {
      "buffer": 0,
      "byteLength": 24,
      "byteOffset": 64964
    },
    {
      "buffer": 0,
      "byteLength": 400,
      "byteOffset": 64988
    },
    {
      "buffer": 0,
      "byteLength": 24,
      "byteOffset": 65388
    },
    {
      "buffer": 0,
      "byteLength": 32,
      "byteOffset": 65412
    },
    {
      "buffer": 0,
      "byteLength": 24,
      "byteOffset": 65444
    },
    {
      "buffer": 0,
      "byteLength": 32,
      "byteOffset": 65468
    },
    {
      "buffer": 0,
      "byteLength": 24,
      "byteOffset": 65500
    },
    {
      "buffer": 0,
      "byteLength": 32,
      "byteOffset": 65524
    },
    {
      "buffer": 0,
      "byteLength": 24,
      "byteOffset": 65556
    },
    {
      "buffer": 0,
      "byteLength": 32,
      "byteOffset": 65580
    },
    {
      "buffer": 0,
      "byteLength": 24,
      "byteOffset": 65612
    },
    {
      "buffer": 0,
      "byteLength": 32,
      "byteOffset": 65636
    },
    {
      "buffer": 0,
      "byteLength": 8,
      "byteOffset": 65668
    },
    {
      "buffer": 0,
      "byteLength": 32,
      "byteOffset": 65676
    },
    {
      "buffer": 0,
      "byteLength": 32,
      "byteOffset": 65708
    },
    {
      "buffer": 0,
      "byteLength": 100,
      "byteOffset": 65740
    },
    {
      "buffer": 0,
      "byteLength": 400,
      "byteOffset": 65840
    },
    {
      "buffer": 0,
      "byteLength": 400,
      "byteOffset": 66240
    }
  ],
  "buffers": [
    {
      "byteLength": 66640,
      "uri": "data:application/octet-stream;base64,"
    }
  ],
  "extras": {
    "puppetProfile": "model-space-v1"
  }
}
