{
  "asset": {
    "version": "2.0",
    "generator": "SuperheroMod cinematic fixture"
  },
  "extras": {
    "puppetProfile": "model-space-v1"
  },
  "scene": 0,
  "scenes": [
    {
      "nodes": [
        2,
        13
      ]
    }
  ],
  "nodes": [
    {
      "name": "head",
      "translation": [
        0,
        -0.375,
        0
      ]
    },
    {
      "name": "chest",
      "translation": [
        0,
        -0.375,
        0
      ],
      "children": [
        0,
        3,
        5
      ]
    },
    {
      "name": "hips",
      "translation": [
        0,
        0.75,
        0
      ],
      "children": [
        1,
        7,
        9
      ]
    },
    {
      "name": "right_upper_arm",
      "translation": [
        -0.3125,
        -0.25,
        0
      ],
      "children": [
        4
      ]
    },
    {
      "name": "right_lower_arm",
      "translation": [
        0,
        0.25,
        0
      ],
      "children": [
        11
      ]
    },
    {
      "name": "left_upper_arm",
      "translation": [
        0.3125,
        -0.25,
        0
      ],
      "children": [
        6
      ]
    },
    {
      "name": "left_lower_arm",
      "translation": [
        0,
        0.25,
        0
      ],
      "children": [
        12
      ]
    },
    {
      "name": "right_upper_leg",
      "translation": [
        -0.11875,
        0,
        0
      ],
      "children": [
        8
      ]
    },
    {
      "name": "right_lower_leg",
      "translation": [
        0,
        0.375,
        0
      ]
    },
    {
      "name": "left_upper_leg",
      "translation": [
        0.11875,
        0,
        0
      ],
      "children": [
        10
      ]
    },
    {
      "name": "left_lower_leg",
      "translation": [
        0,
        0.375,
        0
      ]
    },
    {
      "name": "right_wrist",
      "translation": [
        0,
        0.25,
        0
      ]
    },
    {
      "name": "left_wrist",
      "translation": [
        0,
        0.25,
        0
      ]
    },
    {
      "name": "puppet_mesh",
      "mesh": 0,
      "skin": 0
    }
  ],
  "animations": [
    {
      "name": "guard_wrists",
      "samplers": [
        {
          "input": 6,
          "output": 7,
          "interpolation": "LINEAR"
        },
        {
          "input": 6,
          "output": 8,
          "interpolation": "LINEAR"
        }
      ],
      "channels": [
        {
          "sampler": 0,
          "target": {
            "node": 11,
            "path": "rotation"
          }
        },
        {
          "sampler": 1,
          "target": {
            "node": 12,
            "path": "rotation"
          }
        }
      ]
    }
  ],
  "meshes": [
    {
      "primitives": [
        {
          "attributes": {
            "POSITION": 0,
            "TEXCOORD_0": 1,
            "JOINTS_0": 2,
            "WEIGHTS_0": 3
          },
          "indices": 4,
          "mode": 4
        }
      ]
    }
  ],
  "skins": [
    {
      "joints": [
        0,
        1,
        2,
        3,
        4,
        5,
        6,
        7,
        8,
        9,
        10,
        11,
        12
      ],
      "inverseBindMatrices": 5,
      "skeleton": 2
    }
  ],
  "accessors": [
    {
      "bufferView": 0,
      "componentType": 5126,
      "count": 1136,
      "type": "VEC3",
      "min": [
        -0.4375,
        -0.5,
        -0.25
      ],
      "max": [
        0.4375,
        1.5,
        0.25
      ]
    },
    {
      "bufferView": 1,
      "componentType": 5126,
      "count": 1136,
      "type": "VEC2"
    },
    {
      "bufferView": 2,
      "componentType": 5123,
      "count": 1136,
      "type": "VEC4"
    },
    {
      "bufferView": 3,
      "componentType": 5126,
      "count": 1136,
      "type": "VEC4"
    },
    {
      "bufferView": 4,
      "componentType": 5123,
      "count": 1704,
      "type": "SCALAR"
    },
    {
      "bufferView": 5,
      "componentType": 5126,
      "count": 13,
      "type": "MAT4"
    },
    {
      "bufferView": 6,
      "componentType": 5126,
      "count": 5,
      "type": "SCALAR",
      "min": [
        0
      ],
      "max": [
        1
      ]
    },
    {
      "bufferView": 7,
      "componentType": 5126,
      "count": 5,
      "type": "VEC4"
    },
    {
      "bufferView": 8,
      "componentType": 5126,
      "count": 5,
      "type": "VEC4"
    }
  ],
  "bufferViews": [
    {
      "buffer": 0,
      "byteOffset": 0,
      "byteLength": 13632
    },
    {
      "buffer": 0,
      "byteOffset": 13632,
      "byteLength": 9088
    },
    {
      "buffer": 0,
      "byteOffset": 22720,
      "byteLength": 9088
    },
    {
      "buffer": 0,
      "byteOffset": 31808,
      "byteLength": 18176
    },
    {
      "buffer": 0,
      "byteOffset": 49984,
      "byteLength": 3408
    },
    {
      "buffer": 0,
      "byteOffset": 53392,
      "byteLength": 832
    },
    {
      "buffer": 0,
      "byteOffset": 54224,
      "byteLength": 20
    },
    {
      "buffer": 0,
      "byteOffset": 54244,
      "byteLength": 80
    },
    {
      "buffer": 0,
      "byteOffset": 54324,
      "byteLength": 80
    }
  ],
  "buffers": [
    {
      "byteLength": 54404,
      "uri": "data:application/octet-stream;base64,"
    }
  ]
}
